<?xml version="1.0" encoding="UTF-8"?>
<svg width="42px" height="41px" viewBox="0 0 42 41" version="1.1" xmlns="http://www.w3.org/2000/svg" xmlns:xlink="http://www.w3.org/1999/xlink">
    <!-- Generator: Sketch 52.2 (67145) - http://www.bohemiancoding.com/sketch -->
    <title>Fill-20</title>
    <desc>Created with Sketch.</desc>
    <g id="Resources" stroke="none" stroke-width="1" fill="none" fill-rule="evenodd">
        <g id="Integrations" transform="translate(-1272.000000, -1349.000000)" fill="#F5821F" fill-rule="nonzero">
            <path d="M1292.52854,1349.55538 C1281.1909,1349.55538 1271.99992,1358.50991 1271.99992,1369.55638 C1271.99992,1380.60488 1281.1909,1389.55538 1292.52854,1389.55538 C1297.21602,1389.55538 1301.52748,1388.01451 1304.98149,1385.43137 C1307.10666,1388.89529 1313.05918,1389.55538 1313.05918,1389.55538 L1313.05918,1386.32964 L1313.05918,1370.43313 L1313.05918,1369.55638 C1313.05918,1358.50991 1303.86619,1349.55538 1292.52854,1349.55538 M1292.52854,1380.61094 C1286.24701,1380.61094 1281.15195,1375.64988 1281.15195,1369.52947 C1281.15195,1363.40839 1286.24701,1358.44531 1292.52854,1358.44531 C1298.81007,1358.44531 1303.90513,1363.40839 1303.90513,1369.52947 C1303.90513,1375.64988 1298.81007,1380.61094 1292.52854,1380.61094" id="Fill-20"></path>
        </g>
    </g>
</svg>