<?xml version="1.0" encoding="UTF-8"?>
<svg width="1217px" height="36px" viewBox="0 0 1217 36" version="1.1" xmlns="http://www.w3.org/2000/svg" xmlns:xlink="http://www.w3.org/1999/xlink">
    <!-- Generator: Sketch 63.1 (92452) - https://sketch.com -->
    <title>Logos</title>
    <desc>Created with Sketch.</desc>
    <defs>
        <polygon id="path-1" points="0 0.00185346358 27.845752 0.00185346358 27.845752 27.8476055 0 27.8476055"></polygon>
    </defs>
    <g id="Home" stroke="none" stroke-width="1" fill="none" fill-rule="evenodd">
        <g id="Homepage" transform="translate(-113.000000, -3824.000000)">
            <g id="Great-minds" transform="translate(0.000000, 3123.000000)">
                <g id="Social" transform="translate(113.000000, 660.000000)">
                    <g id="Logos" transform="translate(0.000000, 41.000000)">
                        <g id="hulu" transform="translate(415.000000, 6.000000)" fill="#FFB0C5" fill-rule="nonzero">
                            <path d="M72.9086537,7.656 L67.0565397,7.656 L67.0565397,17.191581 C67.0565397,17.618946 66.8924618,17.9928903 66.6189985,18.2867038 C66.3455352,18.5538069 65.9626867,18.6873584 65.5251454,18.7140687 L62.1068546,18.7140687 C61.6146207,18.6873584 61.2591184,18.5538069 60.9856552,18.2867038 C60.7121919,17.9928903 60.5481139,17.618946 60.5481139,17.191581 L60.5481139,7.656 L54.696,7.656 L54.696,17.6990769 C54.7506927,19.0345925 54.9694633,20.1831358 55.5437361,21.144707 C56.118009,22.1062782 56.8837061,22.774036 57.8681739,23.2281113 C58.879988,23.7088969 60.0558801,23.976 61.3958501,23.976 L67.0838861,23.976 L67.0838861,23.8958691 C68.3144708,23.8958691 69.3536312,23.628766 70.25606,23.12127 C71.1037961,22.5870638 71.7874543,21.8658854 72.2249955,20.9310245 C72.7172294,20.022874 72.936,18.9010409 72.936,17.6990769 L72.9086537,7.656 Z M14.9070945,8.03913416 C13.8952804,7.60621421 12.774081,7.38975423 11.5161499,7.41681172 L7.76970315,7.41681172 L6.2930015,7.57915671 C5.93749925,7.6603292 5.80076762,7.74150169 5.80076762,7.74150169 L5.80076762,-0.024 L-0.024,-0.024 L-0.024,23.976 L5.80076762,23.976 L5.80076762,14.2623585 C5.82811394,13.8564961 5.96484558,13.4506336 6.2930015,13.1800586 C6.59381109,12.9094837 6.94931334,12.7471387 7.4142009,12.7471387 L10.8051454,12.7471387 C11.2153403,12.7471387 11.5981889,12.9094837 11.8989985,13.1800586 C12.1998081,13.4506336 12.3365397,13.8564961 12.3912324,14.2623585 L12.3912324,23.976 L18.216,23.976 L18.216,13.5318061 C18.216,12.0707012 17.9151904,10.8801714 17.3135712,9.98727396 C16.6846057,9.09437655 15.9189085,8.47205411 14.9070945,8.03913416 Z M34.4624865,17.2182913 C34.4350991,17.6456563 34.2981622,18.0196007 34.0242883,18.3134141 C33.723027,18.5805172 33.3396036,18.7140687 32.9014054,18.7407791 L29.5053694,18.7407791 C29.0671712,18.7140687 28.6837477,18.5805172 28.4098739,18.3134141 C28.1086126,18.0196007 27.9716757,17.6456563 27.9169009,17.2182913 L27.9169009,7.656 L22.056,7.656 L22.056,17.6990769 C22.056,19.0345925 22.3298739,20.1831358 22.8776216,21.144707 C23.4253694,22.1062782 24.2196036,22.774036 25.2055495,23.2281113 C26.2188829,23.7088969 27.3417658,23.976 28.7385225,23.976 L34.4624865,23.976 L34.4624865,23.8958691 C35.6949189,23.8958691 36.7356396,23.628766 37.5846486,23.12127 C38.4336577,22.5870638 39.1183423,21.8658854 39.5839279,20.9310245 C40.0221261,20.022874 40.2686126,18.9010409 40.296,17.6990769 L40.296,7.656 L34.4350991,7.656 L34.4350991,17.2182913 L34.4624865,17.2182913 Z M44.616,23.976 L50.376,23.976 L50.376,-0.024 L44.616,-0.024 L44.616,23.976 Z" id="Shape"></path>
                        </g>
                        <g id="Stripe" transform="translate(799.000000, 6.000000)" fill="#FFB0C5" fill-rule="nonzero">
                            <path d="M65.0992896,14.1143018 C65.0992896,9.44614751 62.8488542,5.76654354 58.5657674,5.76654354 C54.2826806,5.76654354 51.6692717,9.42784102 51.6692717,14.0776888 C51.6692717,19.5696351 54.7363974,22.3522211 59.1465249,22.3522211 C60.8903515,22.4014458 62.6167828,21.9913232 64.1555586,21.1622995 L64.1555586,17.501002 C62.7809569,18.1902111 61.2620888,18.535556 59.7272824,18.5078588 C57.9124152,18.5078588 56.424224,17.8854382 56.2245886,15.7435792 L65.0629923,15.7435792 C65.0629923,15.5055948 65.0992896,14.6451899 65.0992896,14.1143018 Z M56.2608859,12.393492 C56.2608859,10.3248589 57.4949957,9.464454 58.6383621,9.464454 C59.7817285,9.464454 60.9250949,10.3248589 60.9250949,12.393492 L56.2608859,12.393492 Z" id="Shape"></path>
                            <path d="M44.6820326,5.76650387 C43.3633811,5.76131392 42.0943515,6.27333979 41.1430414,7.19444956 L40.9071087,6.05944734 L36.9325493,6.05944734 L36.9325493,27.3315857 L41.4515689,26.3613419 L41.4515689,21.1989124 C42.3508801,21.9464231 43.4804301,22.3542665 44.6457353,22.3522211 C47.8761991,22.3522211 50.8344327,19.716087 50.8344327,13.9312369 C50.8162841,8.64066206 47.8399017,5.76650387 44.6820326,5.76650387 Z M43.5568149,18.3064874 C42.7568206,18.3559836 41.9771533,18.0400604 41.4334202,17.4460825 L41.4334202,10.7092951 C41.9703287,10.1017895 42.7509582,9.77201631 43.5568149,9.81227726 C45.2083441,9.81227726 46.3517105,11.642926 46.3517105,14.0593823 C46.3517105,16.4758387 45.2627902,18.3064874 43.5568149,18.3064874 Z" id="Shape"></path>
                            <polygon id="Shape" points="30.7075545 4.68646078 35.2447227 3.69791046 35.2447227 0 30.7075545 0.970243833"></polygon>
                            <polygon id="Rectangle-path" points="30.7075545 6.07775382 35.2447227 6.07775382 35.2447227 22.0410109 30.7075545 22.0410109"></polygon>
                            <path d="M25.8437102,7.43243389 L25.5533314,6.07775382 L21.6513667,6.07775382 L21.6513667,21.9677849 L26.1703863,21.9677849 L26.1703863,11.2218768 C27.0137639,10.2278038 28.3716799,9.85094856 29.6004855,10.2699394 L29.6004855,6.07775382 C28.1883757,5.53385722 26.5939556,6.10879955 25.8437102,7.43243389 Z" id="Shape"></path>
                            <path d="M16.8056711,2.12355254 L12.3773949,3.0571834 L12.3773949,17.7023733 C12.3570949,18.9562083 12.8457055,20.1639405 13.7299006,21.0454534 C14.6140956,21.9269663 15.8170489,22.405667 17.0597525,22.3705276 C18.1446618,22.4200984 19.2260423,22.2132256 20.2176216,21.7664135 L20.2176216,18.1051161 C19.6368641,18.3431004 16.7875224,19.1851988 16.7875224,16.4941452 L16.7875224,9.95872916 L20.2176216,9.95872916 L20.2176216,6.07775382 L16.7875224,6.07775382 L16.8056711,2.12355254 Z" id="Shape"></path>
                            <path d="M4.57346557,10.7092951 C4.57346557,9.99534213 5.1542231,9.72074482 6.11610276,9.72074482 C7.68740622,9.78435509 9.222328,10.2168675 10.598825,10.9838925 L10.598825,6.60864196 C9.17207569,6.04012022 7.65009502,5.75420969 6.11610276,5.76654354 C2.45007084,5.76654354 0,7.68872472 0,10.9838925 C0,16.0181765 6.87834702,15.212691 6.87834702,17.3911631 C6.87834702,18.214955 6.15240011,18.4895523 5.06347973,18.4895523 C3.35102385,18.3638969 1.68861124,17.8508252 0.199635402,16.9884203 L0.199635402,21.3270578 C1.75776988,22.0094832 3.43741105,22.3645275 5.13607442,22.3705276 C8.89284971,22.3705276 11.4881099,20.5398789 11.4881099,17.2264047 C11.4699613,11.7893779 4.57346557,12.8145412 4.57346557,10.7092951 Z" id="Shape"></path>
                        </g>
                        <g id="l'Oreal" transform="translate(588.000000, 9.000000)" fill="#FFB0C5" fill-rule="nonzero">
                            <polygon id="Path" points="60.23337 18.93346 74.38145 18.93346 74.38145 17.16495 62.62606 17.16495 62.62606 11.75539 71.46861 11.75539 71.46861 9.98688 62.62606 9.98688 62.62606 4.88941 74.38145 4.88941 74.38145 3.22493 60.23337 3.22493"></polygon>
                            <polygon id="Path" points="67.6195 0.62418 65.64293 2.80881 71.67667 0.62418"></polygon>
                            <polygon id="Path" points="97.99626 17.16495 97.99626 3.22493 95.81163 3.22493 95.81163 18.93346 110.06374 18.93346 110.06374 17.16495"></polygon>
                            <path d="M83.53609,3.22493 L75.52578,18.93346 L78.23056,18.93346 L80.31116,14.87629 L89.88192,14.87629 L91.96252,18.93346 L94.6673,18.93346 L86.55296,3.22493 L83.53609,3.22493 Z M81.24743,12.89972 L84.99251,5.40956 L88.84162,12.89972 L81.24743,12.89972 Z" id="Shape"></path>
                            <path d="M52.63918,12.37957 C56.28023,11.4433 56.59232,8.73852 56.59232,7.80225 C56.38426,4.99344 54.51172,3.22493 51.07873,3.22493 L41.09185,3.22493 L41.09185,18.93346 L43.38051,18.93346 L43.38051,12.37957 L49.83037,12.37957 L54.61575,18.93346 L57.42456,18.93346 C57.42456,18.93346 53.99157,14.46017 52.63918,12.37957 L52.63918,12.37957 Z M50.76664,10.50703 L43.38051,10.50703 L43.38051,5.09747 L50.9747,5.09747 C52.74321,5.09747 53.67948,5.92971 54.0956,6.97001 C54.30366,7.69822 54.19963,8.63449 53.78351,9.25867 C53.15933,10.19494 51.91097,10.50703 50.76664,10.50703 Z" id="Shape"></path>
                            <path d="M27.46392,0.52015 C21.11809,0.52015 16.74883,4.99344 16.74883,10.50703 C16.74883,16.22868 21.53421,20.28585 27.46392,20.28585 C33.39363,20.28585 38.17901,16.33271 38.17901,10.50703 C38.17901,4.99344 33.80975,0.52015 27.46392,0.52015 L27.46392,0.52015 Z M27.35989,18.30928 C22.8866,18.30928 19.24555,14.77226 19.24555,10.50703 C19.24555,6.2418 22.67854,2.49672 27.46392,2.49672 C32.14527,2.49672 35.57826,6.2418 35.57826,10.50703 C35.68229,14.77226 31.83318,18.30928 27.35989,18.30928 Z" id="Shape"></path>
                            <polygon id="Path" points="11.02718 8.73852 12.69166 8.73852 15.6045 3.22493 13.21181 3.22493"></polygon>
                            <polygon id="Path" points="3.01687 17.16495 3.01687 3.22493 0.83224 3.22493 0.83224 18.93346 15.08435 18.93346 15.08435 17.16495"></polygon>
                        </g>
                        <g id="Slack" transform="translate(0.000000, 6.000000)" fill="#FFB0C5" fill-rule="nonzero">
                            <path d="M31.395,19.845 L32.655,17.01 C34.02,18.06 35.7,18.48 37.38,18.48 C38.64,18.48 39.375,18.06 39.375,17.22 C39.375,15.225 31.815,16.8 31.71,11.655 C31.71,9.03 34.02,7.035 37.275,7.035 C39.165,7.035 41.16,7.455 42.525,8.61 L41.37,11.445 C40.11,10.71 38.43,10.08 36.96,10.08 C35.91,10.08 35.28,10.5 35.28,11.235 C35.28,13.23 42.945,12.18 42.945,17.115 C42.945,19.845 40.74,21.63 37.485,21.63 C35.175,21.63 33.075,21.105 31.395,19.845" id="Path"></path>
                            <path d="M77.385,16.065 C76.86,17.115 75.705,17.85 74.34,17.85 C72.45,17.85 70.875,16.275 70.875,14.385 C70.875,12.495 72.45,10.92 74.34,10.92 C75.705,10.92 76.86,11.55 77.385,12.705 L80.64,10.92 C79.38,8.715 77.07,7.245 74.34,7.245 C70.35,7.245 67.095,10.5 67.095,14.49 C67.095,18.48 70.35,21.735 74.34,21.735 C77.07,21.735 79.38,20.265 80.64,18.06 L77.385,16.065 Z" id="Path"></path>
                            <polygon id="Path" points="44.835 1.155 49.035 1.155 49.035 21.315 44.835 21.315"></polygon>
                            <polygon id="Path" points="82.32 1.155 82.32 21.315 86.52 21.315 86.52 15.225 91.455 21.315 96.705 21.315 90.405 14.175 96.285 7.455 91.245 7.455 86.52 13.02 86.52 1.155"></polygon>
                            <path d="M61.215,16.065 C60.69,17.115 59.43,17.745 57.96,17.745 C56.07,17.745 54.495,16.17 54.495,14.28 C54.495,12.39 56.07,10.815 57.96,10.815 C59.325,10.815 60.585,11.55 61.215,12.6 L61.215,16.065 Z M61.215,7.455 L61.215,9.135 C60.585,7.98 58.905,7.245 57.015,7.245 C53.445,7.245 50.505,10.5 50.505,14.385 C50.505,18.27 53.445,21.63 57.015,21.63 C58.8,21.63 60.48,20.895 61.215,19.74 L61.215,21.315 L65.415,21.315 L65.415,7.455 L61.215,7.455 Z" id="Shape"></path>
                            <path d="M5.775,16.065 C5.775,17.535 4.62,18.69 3.15,18.69 C1.68,18.69 0.525,17.535 0.525,16.065 C0.525,14.595 1.68,13.44 3.15,13.44 L5.775,13.44 L5.775,16.065 Z" id="Path"></path>
                            <path d="M7.14,16.065 C7.14,14.595 8.295,13.44 9.765,13.44 C11.235,13.44 12.39,14.595 12.39,16.065 L12.39,22.47 C12.39,23.94 11.235,25.095 9.765,25.095 C8.295,25.095 7.14,23.94 7.14,22.47 L7.14,16.065 Z" id="Path"></path>
                            <path d="M9.555,5.88 C8.085,5.88 6.93,4.725 6.93,3.255 C6.93,1.785 8.085,0.63 9.555,0.63 C11.025,0.63 12.18,1.785 12.18,3.255 L12.18,5.88 L9.555,5.88 Z" id="Path"></path>
                            <path d="M9.555,7.245 C11.025,7.245 12.18,8.4 12.18,9.87 C12.18,11.34 11.025,12.495 9.555,12.495 L3.255,12.495 C1.785,12.495 0.63,11.34 0.63,9.87 C0.63,8.4 1.785,7.245 3.255,7.245 L9.555,7.245 Z" id="Path"></path>
                            <path d="M19.845,9.66 C19.845,8.19 21,7.035 22.47,7.035 C23.94,7.035 25.095,8.19 25.095,9.66 C25.095,11.13 23.94,12.285 22.47,12.285 L19.845,12.285 L19.845,9.66 Z" id="Path"></path>
                            <path d="M18.585,9.66 C18.585,11.13 17.43,12.285 15.96,12.285 C14.49,12.285 13.335,11.13 13.335,9.66 L13.335,3.255 C13.335,1.785 14.49,0.63 15.96,0.63 C17.43,0.63 18.585,1.785 18.585,3.255 L18.585,9.66 Z" id="Path"></path>
                            <path d="M15.96,19.845 C17.43,19.845 18.585,21 18.585,22.47 C18.585,23.94 17.43,25.095 15.96,25.095 C14.49,25.095 13.335,23.94 13.335,22.47 L13.335,19.845 L15.96,19.845 Z" id="Path"></path>
                            <path d="M15.96,18.69 C14.49,18.69 13.335,17.535 13.335,16.065 C13.335,14.595 14.49,13.44 15.96,13.44 L22.365,13.44 C23.835,13.44 24.99,14.595 24.99,16.065 C24.99,17.535 23.835,18.69 22.365,18.69 L15.96,18.69 Z" id="Path"></path>
                        </g>
                        <g id="Mazda" transform="translate(1107.000000, 10.000000)" fill="#FFB0C5" fill-rule="nonzero">
                            <path d="M23.23,4.242 C20.604,1.414 16.362,0.808 12.726,0.808 C9.09,0.808 4.646,1.414 2.121,4.444 C2.121,4.545 2.02,4.545 2.02,4.646 C0.707,6.161 0,8.282 0,11.211 C0,20.099 7.272,21.614 12.726,21.614 C18.281,21.614 25.553,20.2 25.553,11.211 C25.553,8.282 24.745,6.161 23.533,4.646 C23.432,4.444 23.331,4.343 23.23,4.242 L23.23,4.242 Z M4.444,5.959 C6.161,3.333 9.393,2.626 12.726,2.626 C16.059,2.626 19.291,3.232 21.008,5.858 C21.008,5.959 21.109,5.959 21.109,6.06 C18.18,7.777 14.746,7.878 12.726,12.221 C10.504,7.979 7.171,7.979 4.242,6.262 C4.343,6.161 4.444,6.06 4.444,5.959 L4.444,5.959 Z M12.827,19.594 C7.878,19.594 3.232,18.18 3.232,11.11 C3.232,10.605 3.232,9.999 3.333,9.595 C3.333,9.494 3.333,9.393 3.434,9.292 C5.05,9.898 6.767,10.403 8.383,11.009 C10.302,11.817 11.615,12.928 12.827,15.554 C14.039,13.029 15.251,11.716 17.271,10.908 C18.988,10.302 20.604,9.696 22.321,9.09 L22.321,9.191 C22.422,9.797 22.422,10.504 22.422,11.11 C22.422,18.18 17.776,19.594 12.827,19.594 Z" id="Shape"></path>
                            <polygon id="Path" points="77.467 4.444 67.367 4.444 67.367 8.383 72.619 8.383"></polygon>
                            <path d="M105.04,4.444 L96.152,4.444 L96.152,8.08 L103.222,8.08 L104.939,9.393 C104.939,9.393 100.293,9.393 99.283,9.393 C98.576,9.393 96.354,9.292 95.344,11.009 C95.344,10.807 95.344,10.605 95.344,10.403 C95.344,4.343 90.799,4.545 90.799,4.545 L78.78,4.545 L66.66,14.14 C66.66,14.14 66.66,12.12 66.66,8.282 C66.66,4.444 62.721,4.545 62.721,4.545 L53.833,4.545 L53.833,8.181 L60.903,8.181 C62.923,8.181 62.721,9.494 62.721,9.494 C62.721,9.494 57.974,9.494 57.065,9.494 C56.358,9.494 54.237,9.393 53.126,11.009 L53.126,9.494 C53.126,4.141 48.379,4.545 48.379,4.545 L33.431,4.545 L33.431,17.877 L37.976,17.877 L37.976,8.585 L41.107,8.585 L41.107,17.877 L45.45,17.877 L45.45,8.585 L46.864,8.585 C48.985,8.585 48.682,10.302 48.682,10.302 L48.682,17.877 L53.126,17.877 C53.126,17.877 53.126,17.271 53.126,16.059 C54.237,17.877 56.358,17.877 56.358,17.877 L68.68,17.877 L80.901,8.08 L80.901,17.877 L90.496,17.877 C92.314,17.877 94.031,16.968 94.839,14.544 C95.344,17.877 98.677,17.978 98.677,17.978 L109.08,17.978 C109.08,17.978 109.08,12.221 109.08,8.383 C108.979,4.242 105.04,4.444 105.04,4.444 Z M62.62,14.039 L57.873,14.039 C57.873,14.039 56.863,14.14 56.863,13.13 C56.863,12.322 57.57,12.221 57.873,12.221 L62.519,12.221 L62.519,14.039 L62.62,14.039 Z M89.183,13.837 L85.143,13.837 L85.143,8.181 L89.183,8.181 C89.183,8.181 91.102,8.383 91.102,10.807 C91.203,13.231 90.294,13.837 89.183,13.837 L89.183,13.837 Z M104.838,14.039 L100.091,14.039 C100.091,14.039 99.081,14.14 99.081,13.13 C99.081,12.322 99.889,12.221 100.192,12.221 L104.838,12.221 L104.838,14.039 Z" id="Shape"></path>
                            <polygon id="Path" points="70.094 17.776 80.093 17.776 80.093 13.837 74.841 13.837"></polygon>
                        </g>
                        <g id="American-Eagle" transform="translate(965.000000, 0.000000)" fill="#FFB0C5" fill-rule="nonzero">
                            <path d="M36.4781511,7.938 C38.1441511,7.84 40.0061511,7.35 40.6921511,6.664 C40.0061511,7.84 39.0261511,8.82 36.8701511,9.506 C36.0861511,9.8 36.1841511,10.29 37.0661511,10.192 C37.9481511,10.094 38.9281511,9.604 39.3201511,9.408 C38.8301511,9.996 38.3401511,10.78 36.1841511,11.172 C35.6941511,11.368 35.8901511,11.956 36.9681511,11.564 C36.6741511,11.956 36.0861511,12.152 35.4981511,12.25 C34.8121511,12.446 35.0081511,12.838 36.0861511,12.74 C35.3021511,13.23 34.5181511,13.328 33.9301511,13.328 C33.4401511,13.426 33.8321511,14.112 35.1061511,13.818 C34.5181511,14.112 34.1261511,14.308 33.0481511,14.406 C32.9501511,14.406 32.8521511,14.504 32.7541511,14.504 C31.9701511,14.602 30.8921511,14.798 30.3041511,15.386 C29.4221511,16.366 28.7361511,18.522 28.1481511,19.894 C27.6581511,21.168 25.1101511,25.382 22.0721511,24.794 C22.2681511,25.186 22.3661511,25.578 22.5621511,25.872 C22.8561511,26.852 23.8361511,29.008 25.8941511,30.478 C27.6581511,31.556 28.6381511,32.046 28.6381511,33.222 C28.6381511,33.712 28.3441511,33.614 28.0501511,33.614 C27.7561511,33.614 27.4621511,33.712 27.3641511,34.006 C27.2661511,34.398 27.0701511,34.496 26.7761511,34.398 C26.3841511,34.3 26.0901511,34.3 25.9921511,34.692 C25.7961511,34.986 25.6981511,34.888 25.5021511,34.888 C25.2081511,34.79 25.0121511,34.888 24.7181511,35.084 C24.5221511,35.28 24.2281511,35.28 23.8361511,34.986 C23.5421511,34.79 23.2481511,34.79 22.9541511,34.986 C22.6601511,35.182 22.3661511,34.888 22.0721511,34.692 C21.8761511,34.496 21.6801511,34.398 21.3861511,34.496 C21.0921511,34.594 20.8961511,34.398 20.7001511,34.202 C20.5041511,34.006 20.4061511,33.908 20.1121511,33.908 C19.7201511,33.908 19.4261511,33.712 19.2301511,33.222 C19.1321511,32.928 18.9361511,32.732 18.7401511,32.732 C18.4461511,32.732 18.2501511,32.83 18.1521511,32.536 C18.0541511,32.242 18.0541511,31.948 18.4461511,31.654 C18.7401511,31.262 19.4261511,30.576 19.4261511,29.89 C19.4261511,29.302 18.2501511,29.596 18.1521511,31.066 C18.0541511,31.164 17.8581511,30.968 17.8581511,30.674 C17.5641511,31.262 17.3681511,31.948 17.4661511,32.242 C17.2701511,32.046 17.1721511,31.654 17.1721511,31.654 C17.1721511,31.654 16.2901511,32.242 16.0941511,33.222 C15.8981511,32.438 15.6041511,32.634 15.6041511,32.634 C15.5061511,32.732 15.5061511,32.732 15.4081511,32.83 C15.1141511,33.32 15.4081511,33.81 15.6041511,34.006 C15.8001511,34.104 16.1921511,34.202 16.4861511,34.398 C16.7801511,34.692 17.0741511,35.28 16.5841511,35.672 C16.7801511,35.378 16.4861511,34.986 16.2901511,34.986 C15.8001511,35.084 15.3101511,34.692 15.1141511,34.496 C14.9181511,34.3 14.3301511,34.496 13.9381511,34.594 C13.5461511,34.692 13.0561511,35.182 13.0561511,35.672 C12.8601511,35.476 12.5661511,35.084 12.8601511,34.594 C12.6641511,34.594 12.1741511,34.888 12.1741511,35.084 C11.9781511,34.986 11.7821511,34.594 12.0761511,34.202 C11.8801511,34.202 11.3901511,34.398 11.3901511,34.692 C10.5081511,33.614 12.7621511,33.418 13.3501511,33.222 C13.3501511,33.026 13.1541511,32.83 13.0561511,32.732 C12.7621511,32.732 12.1741511,32.34 11.9781511,32.144 C11.1941511,31.654 10.4101511,31.752 10.3121511,32.242 C10.2141511,32.046 10.0181511,31.654 10.5081511,31.36 C10.2141511,31.262 9.92015106,31.262 9.52815106,31.654 C9.52815106,31.556 9.43015106,30.968 10.0181511,30.772 C9.82215106,30.576 9.13615106,30.674 8.94015106,30.87 C9.52815106,29.498 11.1941511,30.772 11.7821511,30.968 C12.2721511,31.164 12.6641511,30.478 12.7621511,29.792 C12.9581511,29.302 12.9581511,29.106 13.0561511,28.812 C13.1541511,28.616 13.2521511,28.518 13.3501511,28.42 C13.4481511,28.322 13.4481511,28.224 13.5461511,28.126 C13.6441511,27.832 13.7421511,27.538 13.8401511,27.342 C14.2321511,26.264 14.6241511,24.892 13.7421511,23.912 C13.0561511,23.226 12.1741511,23.226 11.5861511,23.324 C11.2921511,23.422 10.7041511,23.52 10.1161511,23.618 C9.72415106,23.814 9.23415106,23.912 9.13615106,24.01 C9.03815106,23.814 9.23415106,23.618 9.33215106,23.52 C9.03815106,23.226 8.64615106,23.716 8.54815106,24.402 C7.76415106,23.52 8.05815106,22.736 8.64615106,22.344 C8.15615106,21.462 9.23415106,20.58 10.1161511,20.286 C10.9001511,19.992 12.5661511,19.698 12.0761511,18.424 C11.7821511,17.738 11.2921511,16.954 10.8021511,16.366 C9.72415106,15.386 8.35215106,14.406 6.98015106,13.622 C5.80415106,12.936 4.53015106,12.544 3.25615106,12.054 C2.96215106,11.858 2.57015106,11.662 2.27615106,11.564 C2.86415106,11.662 3.45215106,11.662 3.06015106,11.368 C2.57015106,11.074 1.88415106,10.486 1.49215106,9.996 C2.17815106,10.29 2.76615106,10.29 2.27615106,9.996 C1.78615106,9.702 0.806151061,9.016 0.512151061,8.036 C1.10015106,8.526 2.08015106,8.918 1.68815106,8.526 C1.39415106,8.232 -0.663848939,6.174 0.218151061,2.94 C0.316151061,4.9 0.708151061,4.998 0.904151061,5.194 C0.512151061,3.136 0.904151061,1.372 1.19815106,0.882 C1.10015106,2.744 1.49215106,3.43 1.98215106,3.822 C1.68815106,1.666 2.27615106,0.392 2.66815106,-1.7756463e-13 C2.37415106,2.254 2.57015106,4.704 4.82415106,5.88 C4.72615106,5.39 4.92215106,4.998 4.92215106,4.998 C4.92215106,4.998 5.02015106,5.586 5.51015106,6.076 C6.09815106,6.664 8.45015106,8.134 10.1161511,9.408 C11.8801511,10.682 13.1541511,11.956 14.0361511,14.112 C15.0161511,16.268 16.1921511,18.326 17.2701511,18.914 C17.2701511,18.914 19.8181511,18.816 21.0921511,13.328 C21.5821511,11.172 23.6401511,7.938 27.1681511,6.566 C30.1081511,5.488 34.0281511,3.528 35.1061511,1.764 C35.2041511,2.548 34.6161511,3.822 33.6361511,4.508 C35.4001511,4.018 37.6541511,2.254 38.4381511,0.882 C38.2421511,2.45 36.6741511,4.704 34.9101511,5.488 C37.4581511,4.9 39.9081511,2.842 40.4961511,1.666 C40.6921511,3.038 38.4381511,5.586 36.9681511,6.174 C38.7321511,5.88 40.2021511,5.292 41.0841511,4.116 C40.5941511,5.488 39.4181511,6.958 36.4781511,7.938 M14.2321511,31.36 C14.2321511,31.066 13.2521511,31.458 13.0561511,31.948 C13.2521511,32.144 13.5461511,32.536 13.4481511,32.83 C13.5461511,33.026 13.5461511,33.32 13.5461511,33.32 C14.3301511,33.026 14.2321511,31.654 14.2321511,31.36" id="Shape"></path>
                        </g>
                        <g id="Pinterest" transform="translate(197.000000, 6.000000)">
                            <polygon id="Fill-1" fill="#FFB0C5" points="45.8738627 21.6159505 49.561616 21.6159505 49.561616 10.0325336 45.8738627 10.0325336"></polygon>
                            <g id="Group-23" transform="translate(0.000000, 0.089478)">
                                <path d="M50.3316617,9.94307427 L53.8835553,9.94307427 L53.8835553,11.5267356 L53.9513939,11.5267356 C54.8111088,10.2823585 55.9196261,9.60379 57.5260221,9.60379 C60.059789,9.60379 61.5529684,11.4136104 61.5529684,13.9927552 L61.5529684,21.5264912 L57.8653063,21.5264912 L57.8653063,14.7394363 C57.8653063,13.5176112 57.2544851,12.6804482 56.0554859,12.6804482 C54.8338434,12.6804482 54.0193238,13.698575 54.0193238,15.1239158 L54.0193238,21.5264912 L50.3316617,21.5264912 L50.3316617,9.94307427 Z" id="Fill-2" fill="#FFB0C5"></path>
                                <path d="M49.9297066,6.84405578 C49.9297066,5.62232198 48.9393362,4.63195156 47.7176937,4.63195156 C46.4960512,4.63195156 45.5055895,5.62232198 45.5055895,6.84405578 C45.5055895,8.06569827 46.4960512,9.05606869 47.7176937,9.05606869 C48.9393362,9.05606869 49.9297066,8.06569827 49.9297066,6.84405578" id="Fill-4" fill="#FFB0C5"></path>
                                <path d="M87.4889773,9.77576038 C87.3837042,9.7662648 87.2630008,9.76206483 87.1218454,9.76206483 C85.7192392,9.76206483 84.7691336,10.3728861 83.954614,11.7529404 L83.8867754,11.7529404 L83.8867754,9.94311992 L80.3574338,9.94311992 L80.3574338,21.5262629 L84.0450959,21.5262629 L84.0450959,16.3229607 C84.0450959,13.9119059 85.3802288,12.7947147 87.4889773,12.989648 L87.4889773,9.77576038 Z" id="Fill-6" fill="#FFB0C5"></path>
                                <path d="M105.58573,14.2188778 C104.115194,13.9474321 102.802978,13.8343982 102.802978,13.0199699 C102.802978,12.2958408 103.504464,11.9565566 104.409192,11.9565566 C105.427318,11.9565566 106.128713,12.2732889 106.264481,13.3140589 L109.658146,13.3140589 C109.477091,11.0290031 107.712374,9.60366218 104.432017,9.60366218 C101.694461,9.60366218 99.4321396,10.8706826 99.4321396,13.3140589 C99.4321396,16.0286982 101.581427,16.5717722 103.594946,16.9111478 C105.133321,17.1826847 106.535927,17.2958099 106.535927,18.3364886 C106.535927,19.0829871 105.834624,19.4902012 104.726106,19.4902012 C103.613846,19.4902012 102.878304,19.0197137 102.652784,18.065043 L99.1388724,18.065043 C99.3975356,20.4462415 101.487658,21.8883822 104.748658,21.8883822 C107.780304,21.8883822 110.019891,20.5762579 110.019891,18.0423997 C110.019891,15.0785927 107.621892,14.5583447 105.58573,14.2188778" id="Fill-8" fill="#FFB0C5"></path>
                                <path d="M93.4131034,19.2186369 C91.8971893,19.2186369 91.0375657,18.2459794 90.811224,16.68487 L99.1368363,16.68487 C99.1595709,14.3320669 98.4809111,12.3185481 97.1007655,11.0517103 C96.1051908,10.1467087 94.7930664,9.60372609 93.1413838,9.60372609 C89.6122248,9.60372609 87.1914918,12.2506182 87.1914918,15.7122125 C87.1914918,19.2186369 89.5443862,21.8658029 93.3677255,21.8658029 C94.8381704,21.8658029 96.0147089,21.4811407 96.987549,20.8024808 C98.0056757,20.1010864 98.6843356,19.1056943 98.9331379,18.0650156 L95.3360491,18.0650156 C95.0192255,18.788962 94.3858522,19.2186369 93.4131034,19.2186369 M93.2094963,12.2280662 C94.4084955,12.2280662 95.2681192,13.1103331 95.403979,14.4904787 L90.8339586,14.4904787 C91.082761,13.1103331 91.8067988,12.2280662 93.2094963,12.2280662" id="Fill-10" fill="#FFB0C5"></path>
                                <path d="M116.514701,18.7949333 C116.343872,18.8016897 116.114426,18.8116418 115.903697,18.8116418 C115.111729,18.8116418 114.614125,18.5853002 114.614125,17.6803899 L114.614125,12.2506547 L116.514701,12.2506547 L116.514701,9.94304688 L114.614125,9.94304688 L114.614125,6.27802809 L111.016853,6.27802809 L111.016853,9.94304688 L109.885053,9.94304688 L109.885053,12.2506547 L111.016853,12.2506547 L111.016853,18.472175 C111.016853,20.9609292 112.555319,21.6620497 114.704606,21.6620497 C115.524604,21.6620497 116.144465,21.6006937 116.514701,21.5284725 L116.514701,18.7949333 Z" id="Fill-12" fill="#FFB0C5"></path>
                                <path d="M68.138498,18.8001924 C67.9914079,18.8058532 67.8215831,18.8116053 67.6628974,18.8116053 C66.8712037,18.8116053 66.3734163,18.5852636 66.3734163,17.6803534 L66.3734163,12.2506182 L68.138498,12.2506182 L68.138498,9.94310166 L66.3734163,9.94310166 L66.3734163,6.27799157 L62.7763274,6.27799157 L62.7763274,9.94310166 L61.5767804,9.94310166 L61.5767804,12.2506182 L62.7763274,12.2506182 L62.7763274,18.4721384 C62.7763274,20.9608926 64.3146109,21.6621045 66.4638982,21.6621045 C67.1911316,21.6621045 67.760501,21.6137135 68.138498,21.5524488 L68.138498,18.8001924 Z" id="Fill-14" fill="#FFB0C5"></path>
                                <path d="M67.958566,15.7120938 C67.958566,12.2506821 70.3792076,9.60379 73.9085492,9.60379 C75.5600492,9.60379 76.8722649,10.1466814 77.867657,11.0516829 C79.2478026,12.318612 79.9263711,14.3320395 79.9037278,16.6849339 L71.5783894,16.6849339 C71.8044572,18.2458607 72.6641721,19.2187008 74.1800862,19.2187008 C75.152835,19.2187008 75.7862996,18.7889346 76.1029406,18.0650795 L79.7002121,18.0650795 C79.4512271,19.1056669 78.7725672,20.101059 77.7544405,20.8025448 C76.781783,21.4812046 75.6053358,21.8656842 74.1347996,21.8656842 C70.3113691,21.8656842 67.958566,19.2187008 67.958566,15.7120938 L67.958566,15.7120938 Z M76.1708705,14.4904513 C76.0352846,13.110397 75.175387,12.2279475 73.9762965,12.2279475 C72.5736903,12.2279475 71.8497438,13.110397 71.6008501,14.4904513 L76.1708705,14.4904513 Z" id="Fill-16" fill="#FFB0C5"></path>
                                <path d="M32.9081362,5.35047457 L39.3118986,5.35047457 C41.2801308,5.35047457 42.7280237,5.89336592 43.7235071,6.84365404 C44.7642771,7.81631155 45.352455,9.19654845 45.352455,10.8254051 C45.352455,13.9247979 43.2031677,16.1193719 39.8774332,16.1193719 L36.6415414,16.1193719 L36.6415414,21.5263725 L32.9081362,21.5263725 L32.9081362,5.35047457 Z M39.4696712,12.9520491 C40.9176554,12.9520491 41.7320837,12.0923342 41.7320837,10.8026705 C41.7320837,9.51318942 40.8949208,8.72140438 39.4696712,8.72140438 L36.6415414,8.72140438 L36.6415414,12.9520491 L39.4696712,12.9520491 Z" id="Fill-18" fill="#FFB0C5"></path>
                                <g id="Group-22">
                                    <mask id="mask-2" fill="white">
                                        <use xlink:href="#path-1"></use>
                                    </mask>
                                    <g id="Clip-21"></g>
                                    <path d="M13.9228623,0.00185346358 C10.2315481,0.00185346358 6.87623118,1.43897251 4.38455526,3.78337568 C4.28101695,3.88079665 4.17839168,3.97922195 4.07795769,4.07974724 C3.97578894,4.1818247 3.87590277,4.28609344 3.77692964,4.39136651 C3.49452753,4.69184674 3.22472532,5.00428775 2.96953169,5.32887213 C1.10940295,7.69591859 -2.73910873e-05,10.6807254 -2.73910873e-05,13.9247432 C-2.73910873e-05,14.033851 0.00161607415,14.1425023 0.00417257564,14.2510623 C0.00481170101,14.2826534 0.0059073445,14.3140618 0.00691168437,14.3456529 C0.00919427499,14.4249044 0.0122072946,14.5039734 0.0159507432,14.5828597 C0.0175029048,14.6163681 0.0189637628,14.6498765 0.0207898353,14.6832937 C0.0256289274,14.7724973 0.0312897521,14.8615183 0.0376810058,14.9502655 C0.0390505602,14.9689827 0.0400549001,14.9877 0.0415157581,15.0064172 C0.0496417806,15.112512 0.0591373576,15.2181503 0.0696372744,15.3234234 C0.072650294,15.3530971 0.0760285281,15.3826794 0.079224155,15.4122618 C0.0873501775,15.4893221 0.0961153255,15.566291 0.105610902,15.6429861 C0.109993476,15.6789597 0.114558658,15.7146594 0.119215142,15.7504504 C0.129167238,15.8265977 0.139849762,15.9023797 0.151080107,15.9780704 C0.155462681,16.008018 0.159571345,16.0380569 0.164227829,16.0680044 C0.179840749,16.1695341 0.196640616,16.2706985 0.214444823,16.3714977 C0.219557826,16.3998931 0.225127347,16.4281972 0.230331653,16.4565927 C0.244027197,16.5310964 0.258179259,16.6053263 0.27306175,16.6794648 C0.280731254,16.7179949 0.288765973,16.7564338 0.296891996,16.7948726 C0.310770147,16.8614329 0.325287423,16.9276281 0.340169914,16.9938232 C0.348478544,17.0308925 0.35669587,17.068053 0.36527841,17.105031 C0.386552155,17.196152 0.408647632,17.2869078 0.431747449,17.3772071 C0.439873472,17.4090721 0.448456012,17.4406631 0.456764642,17.4723455 C0.4758471,17.5450232 0.495386075,17.6175183 0.515564176,17.6896481 C0.52725104,17.7311913 0.539303119,17.7726431 0.551355197,17.814095 C0.568155064,17.8719815 0.585228842,17.929594 0.602759138,17.9872066 C0.615815556,18.0299367 0.628871974,18.0726668 0.642293607,18.1153056 C0.661741279,18.1769356 0.681828077,18.2382916 0.702097481,18.299465 C0.718897348,18.3503211 0.735788519,18.401086 0.753227511,18.4516682 C0.778336008,18.524985 0.803992326,18.5980279 0.830379074,18.6707969 C0.846722422,18.7158096 0.863613593,18.7606396 0.88041346,18.8053784 C0.898948096,18.8549563 0.917756642,18.9045341 0.9368391,18.9538381 C0.955099825,19.0009508 0.973543157,19.0479721 0.9922604,19.0949022 C1.01134286,19.1425627 1.03097314,19.1901319 1.05060342,19.2375185 C1.06968587,19.2836268 1.08840312,19.3298264 1.10794209,19.3756608 C1.14272877,19.4574689 1.17842849,19.5388204 1.21467603,19.6198067 C1.2366802,19.6687455 1.2594148,19.7172277 1.2818755,19.7658012 C1.30114056,19.8073444 1.32031432,19.8488875 1.3399446,19.8901568 C1.36377485,19.9403738 1.38797031,19.9904081 1.41243968,20.0404425 C1.43133953,20.0789727 1.45051329,20.1173202 1.46968705,20.1555764 C1.49534337,20.2066151 1.52081708,20.2576539 1.54702122,20.3084187 C1.56318196,20.3396445 1.57979922,20.3705051 1.59623388,20.4015484 C1.64827694,20.5004302 1.70150695,20.5986729 1.75592391,20.6961852 C1.77363682,20.7279588 1.79116711,20.7598238 1.80915393,20.7915062 C1.83901021,20.844097 1.86941432,20.896414 1.90000103,20.9485484 C1.91853567,20.980322 1.93734422,21.0119131 1.95615276,21.0435042 C1.98765251,21.0964603 2.01933487,21.1493251 2.05156505,21.2018246 C2.06681276,21.2266592 2.08251698,21.2512199 2.09785599,21.2759632 C2.16560328,21.3847058 2.23481143,21.4924441 2.30548043,21.599178 C2.31780642,21.6179866 2.3299498,21.6367951 2.3424584,21.6553297 C2.37834072,21.7091076 2.41486217,21.7623376 2.45147493,21.8154763 C2.46973565,21.8419544 2.48799638,21.8684324 2.50643971,21.8947278 C2.54341768,21.9475926 2.58066955,22.0002748 2.61837795,22.0525918 C2.63444739,22.0748699 2.65079074,22.0970567 2.66695148,22.1192435 C2.79568959,22.2957334 2.92844506,22.4691189 3.06521789,22.6392176 C3.08247427,22.660674 3.09963936,22.6823129 3.11707835,22.703678 C3.15898671,22.7551732 3.20126029,22.8063945 3.24380778,22.8572507 C3.26142938,22.8783418 3.27932489,22.8993416 3.2971291,22.9202502 C3.43956275,23.0883401 3.58592246,23.2530519 3.73602562,23.4141115 C3.75273418,23.4320983 3.76935144,23.4500851 3.78615131,23.4678893 C3.83180312,23.5163715 3.87782015,23.5643972 3.92411109,23.612149 C3.94410658,23.6327836 3.96419338,23.653327 3.98428017,23.6738703 C4.03148415,23.7218047 4.07868812,23.7697391 4.12643992,23.8170344 C4.13712244,23.8276256 4.14789627,23.8379429 4.1586701,23.8484428 C4.25864757,23.9468681 4.3602685,24.0438326 4.46316768,24.1392448 C4.4786893,24.1535795 4.49402831,24.1680968 4.50964123,24.1824315 C4.55757563,24.2265311 4.60605786,24.2699003 4.65454008,24.3133609 C4.67827902,24.334452 4.70210927,24.3556344 4.72593952,24.3766343 C4.77387392,24.4189078 4.82208223,24.4609988 4.87065576,24.502542 C4.89256863,24.5212592 4.91466411,24.5397025 4.93666828,24.5584198 C5.03892834,24.6448843 5.14228404,24.7299793 5.2470093,24.8136134 C5.2595179,24.8235655 5.27184389,24.8337915 5.28444379,24.8437436 C5.33292601,24.8820911 5.38204736,24.9199821 5.43107741,24.9577818 C5.45983805,24.9798773 5.48850739,25.0020641 5.51735933,25.023977 C5.56501982,25.0601332 5.61277162,25.0959242 5.66088863,25.1314413 C5.69165795,25.1541759 5.72270118,25.1766366 5.75365311,25.1990973 C5.80158752,25.233884 5.84943061,25.2688533 5.89782154,25.3030008 C5.89864327,25.3035487 5.8993737,25.3040965 5.90019543,25.304553 C6.01386844,25.3849002 6.12918492,25.4632387 6.24541443,25.5402077 C6.2823011,25.5645857 6.31918776,25.5891464 6.35634834,25.6131593 C6.40163494,25.642559 6.44710414,25.6715936 6.49266465,25.7003542 C6.53229042,25.725554 6.57219011,25.7502973 6.61218109,25.7750406 C6.65609814,25.8021578 6.69992388,25.8293662 6.74420613,25.8560269 C6.79761876,25.8882571 6.85148789,25.9199394 6.90544834,25.9513479 C6.96552612,25.9865911 7.02596912,26.0212865 7.08668603,26.0555253 C7.13717693,26.0841034 7.18766784,26.1124988 7.23852396,26.1404377 C7.27924537,26.1628071 7.32033201,26.1847199 7.36123603,26.2066328 C7.4109965,26.2332935 7.46084828,26.2595889 7.51079137,26.2856104 C7.55023453,26.3060625 7.58949509,26.3265145 7.62902956,26.3466926 C7.69221167,26.3786488 7.75566769,26.4100573 7.81930631,26.4411918 C7.85062346,26.4564395 7.88166669,26.4719611 7.91307514,26.4870262 C7.99515709,26.5262868 8.07778687,26.5648169 8.16078187,26.6026166 C8.19410769,26.617773 8.22761612,26.6324729 8.26103325,26.6473554 C8.3228458,26.6749291 8.38465836,26.7020463 8.44683612,26.7287069 C8.48080107,26.7432242 8.51467472,26.7576502 8.54873097,26.7719849 C8.62067823,26.8021151 8.6929907,26.8316061 8.76557708,26.8605494 C8.78758125,26.8693145 8.80949412,26.8784449 8.8315896,26.8871187 C8.83734173,26.8894013 8.84318516,26.8915013 8.84893729,26.8937839 C8.72732086,25.7921144 8.61739129,24.0983408 8.89732821,22.8958721 C9.15033055,21.8091763 10.5299283,15.9753313 10.5299283,15.9753313 C10.5299283,15.9753313 10.1134012,15.1411813 10.1134012,13.9081259 C10.1134012,11.9721238 11.2355227,10.5267875 12.6327421,10.5267875 C13.8206022,10.5267875 14.3943542,11.4186413 14.3943542,12.4879893 C14.3943542,13.6826059 13.633795,15.4686875 13.2412807,17.1237483 C12.9132268,18.5095547 13.9361926,19.6397109 15.3030079,19.6397109 C17.77761,19.6397109 19.6798297,17.0303446 19.6798297,13.2639788 C19.6798297,9.9303922 17.2843878,7.59968457 13.8640628,7.59968457 C9.90258111,7.59968457 7.5772604,10.5709784 7.5772604,13.6417932 C7.5772604,14.8385098 8.0382524,16.1215997 8.61346524,16.8191594 C8.72722955,16.9570278 8.74384681,17.0777312 8.70997317,17.2185214 C8.60433488,17.6581484 8.36941065,18.6039626 8.32330232,18.7975263 C8.26258541,19.0523547 8.12152131,19.1064065 7.85765384,18.9836031 C6.11877631,18.1741965 5.03162405,15.631847 5.03162405,13.5898415 C5.03162405,9.19795452 8.22268573,5.1644343 14.231012,5.1644343 C19.0608825,5.1644343 22.8141919,8.60612443 22.8141919,13.2057271 C22.8141919,18.0040065 19.788755,21.8656933 15.5895187,21.8656933 C14.1786038,21.8656933 12.8523273,21.1327991 12.3983657,20.2670581 C12.3983657,20.2670581 11.7001669,22.9252719 11.5309813,23.5768145 C11.2166229,24.786131 10.368047,26.3019538 9.80050366,27.2266769 C9.95151986,27.2735157 10.1039056,27.3171588 10.2571131,27.3588846 C10.2796651,27.3650019 10.3021258,27.3711192 10.3246778,27.3772366 C10.6307275,27.458862 10.9410685,27.5301702 11.2549704,27.591161 C11.2831832,27.5967305 11.311396,27.6022087 11.3397002,27.607413 C11.6492194,27.6655734 11.9623909,27.7132339 12.2788492,27.7505771 C12.3130881,27.7545032 12.347327,27.7584292 12.3817484,27.762264 C12.694372,27.7967767 13.0101,27.8207896 13.3287496,27.8342112 C13.3673711,27.8357634 13.4059925,27.8373155 13.4447052,27.8385025 C13.6034822,27.8438894 13.7627157,27.8476329 13.9228623,27.8476329 C15.7120481,27.8476329 17.422165,27.5098094 18.9935004,26.8949708 C24.1754376,24.8676652 27.845752,19.824966 27.845752,13.9247432 C27.845752,6.23524321 21.612271,0.00185346358 13.9228623,0.00185346358" id="Fill-20" fill="#FFB0C5" mask="url(#mask-2)"></path>
                                </g>
                            </g>
                        </g>
                    </g>
                </g>
            </g>
        </g>
    </g>
</svg>