<?xml version="1.0" encoding="UTF-8"?>
<svg width="41px" height="40px" viewBox="0 0 41 40" version="1.1" xmlns="http://www.w3.org/2000/svg" xmlns:xlink="http://www.w3.org/1999/xlink">
    <!-- Generator: Sketch 63 (92445) - https://sketch.com -->
    <title>MS Teams</title>
    <desc>Created with Sketch.</desc>
    <g id="Home" stroke="none" stroke-width="1" fill="none" fill-rule="evenodd">
        <g id="Homepage" transform="translate(-1071.000000, -4455.000000)" fill-rule="nonzero">
            <g id="Integrations" transform="translate(0.000000, 3944.000000)">
                <g id="Cards" transform="translate(113.000000, 487.000000)">
                    <g id="Integration" transform="translate(936.000000, 0.000000)">
                        <g id="MS-Teams" transform="translate(22.000000, 24.000000)">
                            <path d="M34.2352442,15.2730361 C34.5664544,15.6042463 34.9571125,15.8675159 35.388535,16.0509554 C36.2887473,16.4280255 37.3027601,16.4280255 38.2046709,16.0509554 C39.07431,15.6806794 39.7673036,14.9893843 40.1358811,14.1197452 C40.5129512,13.2195329 40.5129512,12.2055202 40.1358811,11.3036093 C39.7656051,10.4339703 39.07431,9.74097665 38.2046709,9.37239915 C37.3044586,8.99532909 36.2904459,8.99532909 35.388535,9.37239915 C34.518896,9.74267516 33.8259023,10.4339703 33.4573248,11.3036093 C33.0802548,12.2038217 33.0802548,13.2178344 33.4573248,14.1197452 C33.6407643,14.5494692 33.9057325,14.9418259 34.2352442,15.2730361 L34.2352442,15.2730361 Z M33.1753715,18.6326964 L33.1753715,29.5388535 L34.9927813,29.5388535 C35.6178344,29.5354565 36.2394904,29.477707 36.8526539,29.3622081 C37.4692144,29.2535032 38.0636943,29.0462845 38.6140127,28.7473461 C39.133758,28.4653928 39.5821656,28.0679406 39.9269639,27.5889597 C40.2887473,27.0573248 40.4704883,26.4237792 40.4450106,25.7800425 L40.4450106,18.6326964 L33.1753715,18.6326964 Z M27.2849257,14.0602972 C27.7673036,14.0636943 28.2462845,13.966879 28.6912951,13.7766454 C29.5609342,13.4063694 30.2522293,12.7150743 30.6208068,11.8454352 C30.9978769,10.9452229 30.9978769,9.93121019 30.6191083,9.02929936 C30.2488323,8.1596603 29.5575372,7.46666667 28.6878981,7.09808917 C28.2428875,6.90785563 27.7639066,6.81104034 27.2798301,6.81443737 C26.7991507,6.81104034 26.3235669,6.90785563 25.8819533,7.09808917 C25.5524416,7.23906582 25.4488323,7.42250531 24.9953291,7.6433121 L24.9953291,13.2314225 C25.4505308,13.4539278 25.5524416,13.6356688 25.8819533,13.7766454 C26.3252654,13.9685775 26.8025478,14.0636943 27.2849257,14.0602972 L27.2849257,14.0602972 Z M24.9953291,32.4229299 C25.4505308,32.5214437 25.6135881,32.5978769 25.9363057,32.6420382 C26.2895966,32.6929936 26.6462845,32.7184713 27.0029724,32.7201699 C27.5532909,32.7167728 28.1036093,32.6590234 28.6420382,32.5435244 C29.1906582,32.433121 29.7171975,32.2276008 30.1961783,31.937155 C30.6666667,31.6484076 31.0624204,31.2543524 31.3545648,30.7872611 C31.6772824,30.2420382 31.8352442,29.6135881 31.811465,28.9800425 L31.811465,16.3600849 L24.9953291,16.3600849 L24.9953291,32.4229299 L24.9953291,32.4229299 Z M0,35.9014862 L23.6314225,39.9915074 L23.6314225,0 L0,4.09002123 L0,35.9014862 Z" id="Shape" fill="#5558AF"></path>
                            <polygon id="Path" fill="#FFFFFF" points="17.2687898 12.2700637 6.3626327 12.9341826 6.3626327 15.4496815 10.4526539 15.2849257 10.4526539 26.94862 13.1787686 27.1082803 13.1787686 15.1779193 17.2687898 14.9961783"></polygon>
                        </g>
                    </g>
                </g>
            </g>
        </g>
    </g>
</svg>