<svg enable-background="new 0 0 40 40" height="40px" viewBox="0 0 40 40" width="40px" xmlns="http://www.w3.org/2000/svg"><path d="m8.7 25.1c0 2.3-1.8 4.1-4.1 4.1s-4.1-1.8-4.1-4.1 1.8-4.1 4.1-4.1h4.1z" fill="#e01e5a"/><path d="m10.8 25.1c0-2.3 1.8-4.1 4.1-4.1s4.1 1.8 4.1 4.1v10.2c0 2.3-1.8 4.1-4.1 4.1s-4.1-1.8-4.1-4.1z" fill="#e01e5a"/><path d="m14.9 8.7c-2.3 0-4.1-1.8-4.1-4.1s1.8-4.1 4.1-4.1 4.1 1.9 4.1 4.1v4.1z" fill="#36c5f0"/><path d="m14.9 10.8c2.3 0 4.1 1.8 4.1 4.1s-1.9 4.1-4.1 4.1h-10.3c-2.3 0-4.1-1.8-4.1-4.1s1.8-4.1 4.1-4.1z" fill="#36c5f0"/><path d="m31.3 14.9c0-2.3 1.8-4.1 4.1-4.1s4.1 1.8 4.1 4.1-1.9 4.1-4.1 4.1h-4.1z" fill="#2eb67d"/><path d="m29.2 14.9c0 2.3-1.8 4.1-4.1 4.1s-4.1-1.9-4.1-4.1v-10.3c0-2.3 1.8-4.1 4.1-4.1s4.1 1.8 4.1 4.1z" fill="#2eb67d"/><g fill="#ecb22e"><path d="m25.1 31.3c2.3 0 4.1 1.8 4.1 4.1s-1.8 4.1-4.1 4.1-4.1-1.8-4.1-4.1v-4.1z"/><path d="m25.1 29.2c-2.3 0-4.1-1.8-4.1-4.1s1.8-4.1 4.1-4.1h10.2c2.3 0 4.1 1.8 4.1 4.1s-1.8 4.1-4.1 4.1z"/></g></svg>